HIERARCHY
ROOT Hips
{
	OFFSET 0.000000 0.000000 0.000000 
	CHANNELS 6 Xposition Yposition Zposition Zrotation Yrotation Xrotation
	JOINT LeftUpLeg
	{
		OFFSET 1.363060 -1.794630 0.839290 
		CHANNELS 3 Zrotation Yrotation Xrotation
		JOINT LeftLeg
		{
			OFFSET 2.448110 -6.726130 0.000000 
			CHANNELS 3 Zrotation Yrotation Xrotation
			JOINT LeftFoot
			{
				OFFSET 2.562200 -7.039590 0.000000 
				CHANNELS 3 Zrotation Yrotation Xrotation
				JOINT LeftToeBase
				{
					OFFSET 0.157640 -0.433110 2.322550 
					CHANNELS 3 Zrotation Yrotation Xrotation
					End Site
					{
						OFFSET 0.000000 0.000000 0.000000 
					}
				}
			}
		}
	}
	JOINT RightUpLeg
	{
		OFFSET -1.305520 -1.794630 0.839290 
		CHANNELS 3 Zrotation Yrotation Xrotation
		JOINT RightLeg
		{
			OFFSET -2.542530 -6.985550 0.000000 
			CHANNELS 3 Zrotation Yrotation Xrotation
			JOINT RightFoot
			{
				OFFSET -2.568260 -7.056230 0.000000 
				CHANNELS 3 Zrotation Yrotation Xrotation
				JOINT RightToeBase
				{
					OFFSET -0.164730 -0.452590 2.363150 
					CHANNELS 3 Zrotation Yrotation Xrotation
					End Site
					{
						OFFSET 0.000000 0.000000 0.000000 
					}
				}
			}
		}
	}
	JOINT Spine
	{
		OFFSET 0.028270 2.035590 -0.193380 
		CHANNELS 3 Zrotation Yrotation Xrotation
		JOINT Spine1
		{
			OFFSET 0.056720 2.048850 -0.042750 
			CHANNELS 3 Zrotation Yrotation Xrotation
			JOINT Neck1
			{
				OFFSET -0.054170 1.746240 0.172020 
				CHANNELS 3 Zrotation Yrotation Xrotation
				JOINT Head
				{
					OFFSET 0.104070 1.761360 -0.123970 
					CHANNELS 3 Zrotation Yrotation Xrotation
					End Site
					{
						OFFSET 0.000000 0.000000 0.000000 
					}
				}
			}
			JOINT LeftArm
			{
				OFFSET 3.362410 1.200890 -0.311210 
				CHANNELS 3 Zrotation Yrotation Xrotation
				JOINT LeftForeArm
				{
					OFFSET 4.983000 -0.000000 -0.000000 
					CHANNELS 3 Zrotation Yrotation Xrotation
					JOINT LeftHand
					{
						OFFSET 3.483560 -0.000000 -0.000000 
						CHANNELS 3 Zrotation Yrotation Xrotation
						JOINT LeftHandIndex1
						{
							OFFSET 0.715260 -0.000000 -0.000000 
							CHANNELS 3 Zrotation Yrotation Xrotation
							End Site
							{
								OFFSET 0.000000 0.000000 0.000000 
							}
						}
					}
				}
			}
			JOINT RightArm
			{
				OFFSET -3.136600 1.374050 -0.404650 
				CHANNELS 3 Zrotation Yrotation Xrotation
				JOINT RightForeArm
				{
					OFFSET -5.241900 -0.000000 -0.000000 
					CHANNELS 3 Zrotation Yrotation Xrotation
					JOINT RightHand
					{
						OFFSET -3.444170 -0.000000 -0.000000 
						CHANNELS 3 Zrotation Yrotation Xrotation
						JOINT RightHandIndex1
						{
							OFFSET -0.622530 -0.000000 -0.000000 
							CHANNELS 3 Zrotation Yrotation Xrotation
							End Site
							{
								OFFSET 0.000000 0.000000 0.000000 
							}
						}
					}
				}
			}
		}
	}
}
MOTION
Frames: 15
Frame Time: 0.041667
53.866554 17.127647 18.041726 -174.183721 -40.507700 172.453524 -15.161375 9.159606 -5.642319 1.016577 9.368341 25.644019 -0.100437 3.770638 -10.812090 0.078200 1.804500 4.965600 27.856321 -0.065525 -6.650454 -1.415738 -11.508652 31.554610 1.050992 -8.055220 -15.003550 -0.224000 -3.046800 8.409200 1.505812 -1.476234 -1.224092 -0.704872 -0.822713 4.307078 5.580530 -0.801123 11.428451 -0.428700 0.030900 4.600600 -80.002444 14.713707 36.662691 149.724268 -36.747122 -111.323668 -0.582628 -1.327437 -2.996765 -7.125000 0.000000 0.000000 74.959555 -12.366964 35.208606 -145.682875 40.209836 -108.475566 -0.372760 1.549595 12.742131 7.125000 0.000000 0.000000 
53.870651 17.128401 18.044745 -174.227595 -40.517612 172.492303 -15.200302 9.139438 -5.653807 1.010297 9.361918 25.617058 -0.113325 3.811477 -10.770075 0.082000 1.846700 5.082200 27.826083 -0.048498 -6.678688 -1.416623 -11.511862 31.561351 1.059577 -8.087489 -15.022105 -0.227200 -3.067900 8.467700 1.502615 -1.478550 -1.219731 -0.677630 -0.826714 4.345120 5.635098 -0.756522 11.463561 -0.371100 0.054400 4.652500 -80.032918 14.693803 36.512782 149.844962 -36.584397 -111.436549 -0.559798 -1.340042 -3.720377 -7.125000 0.000000 0.000000 74.931449 -12.339102 35.244603 -145.702595 40.188468 -108.490221 -0.371380 1.551877 12.718181 7.125000 0.000000 0.000000 
53.873993 17.129371 18.047440 -174.280599 -40.500123 172.534264 -15.240467 9.152456 -5.658619 1.004487 9.355075 25.590077 -0.114926 3.811433 -10.739046 0.083400 1.862800 5.126700 27.786676 -0.022610 -6.699345 -1.419506 -11.517875 31.576662 1.067242 -8.111389 -15.017978 -0.220400 -3.022200 8.340500 1.501761 -1.474290 -1.206787 -0.636221 -0.827932 4.394755 5.657048 -0.731553 11.434467 -0.337800 0.063400 4.623900 -80.078028 14.556402 36.507738 149.825347 -36.595288 -111.429959 -0.562087 -1.338529 -3.743381 -7.125000 0.000000 0.000000 74.908482 -12.267914 35.268127 -145.709150 40.183552 -108.496464 -0.375235 1.553802 12.691944 7.125000 0.000000 0.000000 
53.877011 17.130126 18.050027 -174.313539 -40.480793 172.577531 -15.271632 9.153195 -5.681292 0.999115 9.348144 25.563703 -0.127905 3.858057 -10.722328 0.083100 1.858900 5.115900 27.756542 -0.005268 -6.739155 -1.421427 -11.524048 31.588473 1.063925 -8.092646 -14.986553 -0.223700 -3.044500 8.402700 1.491351 -1.440061 -1.202015 -0.698944 -0.807625 4.412840 5.613574 -0.768865 11.444796 -0.382800 0.046600 4.637100 -80.017311 14.481192 36.469035 149.815476 -36.601009 -111.426887 -0.552953 -1.341939 -3.903823 -7.125000 0.000000 0.000000 74.963563 -12.269679 35.257749 -145.727841 40.164218 -108.505831 -0.371941 1.552142 12.724176 7.125000 0.000000 0.000000 
53.880569 17.131096 18.052830 -174.355288 -40.468057 172.627624 -15.306426 9.154464 -5.704873 0.992709 9.340521 25.533837 -0.137800 3.885984 -10.673654 0.080200 1.827100 5.028100 27.722725 0.013491 -6.782811 -1.424200 -11.531443 31.604246 1.067915 -8.101169 -14.969737 -0.222700 -3.037800 8.384000 1.486378 -1.424303 -1.195087 -0.706930 -0.800268 4.444818 5.598960 -0.774103 11.445346 -0.393000 0.043800 4.641300 -80.011004 14.422253 36.532653 149.803544 -36.623188 -111.403597 -0.562187 -1.334599 -3.626927 -7.125000 0.000000 0.000000 74.970519 -12.245028 35.276284 -145.743677 40.149835 -108.514355 -0.370228 1.551820 12.732554 7.125000 0.000000 0.000000 
53.884126 17.132282 18.055417 -174.395997 -40.456348 172.682414 -15.340809 9.155715 -5.735738 0.986525 9.333750 25.505803 -0.147601 3.910954 -10.610449 0.074500 1.760800 4.845200 27.688425 0.031688 -6.831426 -1.426352 -11.538382 31.617812 1.072774 -8.111562 -14.949397 -0.221600 -3.030400 8.363300 1.481119 -1.406910 -1.188481 -0.719915 -0.791491 4.473511 5.576267 -0.788558 11.441265 -0.411400 0.036200 4.638600 -79.998592 14.373748 36.647226 149.774403 -36.673176 -111.358424 -0.578113 -1.322603 -3.136443 -7.125000 0.000000 0.000000 74.980871 -12.226947 35.296354 -145.759730 40.136057 -108.521825 -0.367591 1.551016 12.744086 7.125000 0.000000 0.000000 
53.887684 17.133468 18.058005 -174.435716 -40.448523 172.741686 -15.373992 9.152914 -5.771776 0.979659 9.326181 25.475187 -0.158252 3.936422 -10.532257 0.067000 1.670200 4.595100 27.654894 0.049682 -6.887009 -1.428493 -11.545814 31.631814 1.078373 -8.124849 -14.930192 -0.220700 -3.024500 8.346900 1.476051 -1.391301 -1.182729 -0.733517 -0.783371 4.498940 5.551037 -0.806546 11.436629 -0.432700 0.026800 4.632600 -79.985605 14.337382 36.766107 149.743613 -36.726551 -111.311137 -0.594172 -1.309958 -2.629443 -7.125000 0.000000 0.000000 74.991022 -12.215826 35.322436 -145.774462 40.124414 -108.527125 -0.363935 1.549946 12.755990 7.125000 0.000000 0.000000 
53.891565 17.134762 18.060484 -174.474741 -40.447821 172.804732 -15.405157 9.151623 -5.813962 0.972702 9.318663 25.444029 -0.167766 3.954830 -10.441210 0.059100 1.568700 4.315200 27.622695 0.069121 -6.945247 -1.430471 -11.553425 31.645671 1.083246 -8.137409 -14.917726 -0.220200 -3.021000 8.337200 1.471761 -1.379199 -1.177584 -0.739768 -0.777310 4.522764 5.532902 -0.820874 11.431399 -0.447900 0.019100 4.624900 -79.975958 14.300233 36.870234 149.710832 -36.778919 -111.266728 -0.607859 -1.298812 -2.194422 -7.125000 0.000000 0.000000 75.000068 -12.204284 35.352943 -145.786359 40.116073 -108.529965 -0.359923 1.548802 12.764653 7.125000 0.000000 0.000000 
53.895554 17.136055 18.062748 -174.512685 -40.455752 172.863666 -15.433040 9.154589 -5.857558 0.965962 9.311035 25.413147 -0.175694 3.967023 -10.347529 0.052200 1.474100 4.054400 27.592431 0.087188 -7.000393 -1.432335 -11.560718 31.659305 1.086501 -8.146549 -14.912684 -0.220900 -3.025200 8.349000 1.467313 -1.367625 -1.172703 -0.746900 -0.771428 4.541876 5.517636 -0.839607 11.426406 -0.461000 0.009400 4.613700 -79.958778 14.258113 36.937202 149.680512 -36.821383 -111.233367 -0.614904 -1.292725 -1.950753 -7.125000 0.000000 0.000000 75.016625 -12.195919 35.378294 -145.794055 40.111848 -108.529713 -0.355676 1.547547 12.768210 7.125000 0.000000 0.000000 
53.899542 17.137241 18.064796 -174.549756 -40.466144 172.918773 -15.460329 9.157292 -5.896127 0.959238 9.303330 25.382503 -0.182942 3.979586 -10.266724 0.047400 1.405500 3.865400 27.563065 0.104038 -7.050435 -1.434280 -11.567618 31.672533 1.089451 -8.155696 -14.911197 -0.221200 -3.027400 8.355100 1.463113 -1.358565 -1.167808 -0.752141 -0.767112 4.562097 5.506276 -0.853191 11.426405 -0.471600 0.002600 4.607200 -79.939648 14.200017 36.941904 149.654002 -36.848983 -111.215727 -0.613630 -1.293478 -1.974813 -7.125000 0.000000 0.000000 75.034738 -12.181034 35.406449 -145.794027 40.114664 -108.524063 -0.351742 1.546277 12.761064 7.125000 0.000000 0.000000 
53.903639 17.138427 18.066737 -174.586634 -40.481143 172.967832 -15.486371 9.161017 -5.930328 0.952723 9.295496 25.352130 -0.189313 3.990302 -10.195348 0.044600 1.362500 3.746700 27.534615 0.121033 -7.093783 -1.436082 -11.574046 31.685539 1.089761 -8.157977 -14.916395 -0.222600 -3.037000 8.381900 1.458434 -1.349921 -1.163097 -0.758684 -0.762752 4.581014 5.505191 -0.858543 11.432598 -0.472900 0.000300 4.606300 -79.910212 14.142101 36.952505 149.622663 -36.881827 -111.195107 -0.611978 -1.294613 -2.016293 -7.125000 0.000000 0.000000 75.059135 -12.162146 35.428856 -145.788133 40.122084 -108.515083 -0.348305 1.545116 12.745948 7.125000 0.000000 0.000000 
53.907520 17.139613 18.068462 -174.623469 -40.495503 173.011047 -15.513018 9.162295 -5.955448 0.946392 9.287497 25.321952 -0.195986 4.006044 -10.142818 0.043600 1.348000 3.706800 27.506378 0.136908 -7.129117 -1.438159 -11.580052 31.698602 1.089318 -8.158375 -14.923434 -0.223800 -3.045100 8.404400 1.453576 -1.341710 -1.158378 -0.767142 -0.758686 4.599281 5.502947 -0.863370 11.444816 -0.475100 -0.001400 4.610700 -79.873422 14.086305 36.965458 149.588706 -36.917342 -111.173215 -0.609539 -1.296452 -2.071702 -7.125000 0.000000 0.000000 75.082086 -12.140435 35.451841 -145.777531 40.133293 -108.503326 -0.345405 1.544024 12.715208 7.125000 0.000000 0.000000 
53.911401 17.140799 18.070079 -174.659378 -40.509158 173.055117 -15.540251 9.160345 -5.978673 0.939944 9.279324 25.291413 -0.202941 4.023935 -10.095235 0.042900 1.336600 3.675500 27.478377 0.153571 -7.164314 -1.440015 -11.585854 31.711119 1.088703 -8.158513 -14.931701 -0.225200 -3.054700 8.431200 1.448788 -1.334012 -1.154019 -0.776034 -0.754834 4.618000 5.499728 -0.866795 11.462467 -0.478000 -0.002200 4.620200 -79.830826 14.032699 36.983600 149.553463 -36.954213 -111.150505 -0.607402 -1.298221 -2.131492 -7.125000 0.000000 0.000000 75.100954 -12.115162 35.475473 -145.763825 40.147116 -108.490049 -0.343462 1.543290 12.672189 7.125000 0.000000 0.000000 
53.915066 17.141985 18.071696 -174.697269 -40.518929 173.099843 -15.568995 9.153841 -5.999900 0.933451 9.271188 25.260654 -0.210882 4.046544 -10.053518 0.042100 1.324800 3.642800 27.450054 0.172881 -7.199062 -1.441703 -11.591428 31.722805 1.088006 -8.157888 -14.938025 -0.226800 -3.065500 8.461100 1.443754 -1.325182 -1.150353 -0.785864 -0.750287 4.634442 5.500210 -0.868096 11.481284 -0.477100 -0.001800 4.631400 -79.783706 13.983533 37.006188 149.515980 -36.993579 -111.126602 -0.605114 -1.300253 -2.193688 -7.125000 0.000000 0.000000 75.112661 -12.091832 35.501290 -145.751223 40.159067 -108.478474 -0.342402 1.542928 12.612467 7.125000 0.000000 0.000000 
53.918624 17.143278 18.073205 -174.733307 -40.526882 173.148000 -15.598664 9.137353 -6.022080 0.926896 9.263299 25.230487 -0.220384 4.076649 -10.017022 0.041500 1.314200 3.613700 27.422115 0.192875 -7.238116 -1.443082 -11.596657 31.732713 1.090613 -8.165947 -14.937015 -0.227300 -3.068900 8.470700 1.438722 -1.316843 -1.147798 -0.796116 -0.745662 4.646793 5.504617 -0.866492 11.499383 -0.472600 -0.000100 4.641900 -79.733369 13.946333 37.034738 149.480380 -37.031675 -111.103521 -0.603126 -1.302254 -2.250708 -7.125000 0.000000 0.000000 75.116973 -12.072537 35.532316 -145.740155 40.168988 -108.468507 -0.341976 1.543193 12.541136 7.125000 0.000000 0.000000 
